<?xml version="1.0" encoding="utf-8"?><!-- Uploaded to: SVG Repo, www.svgrepo.com, Generator: SVG Repo Mixer Tools -->
<svg width="800px" height="800px" viewBox="0 0 24 24" fill="none" xmlns="http://www.w3.org/2000/svg">
<path fill-rule="evenodd" clip-rule="evenodd" d="M8.15497 5.65299C8.71724 4.10711 10.2257 3 12 3C13.7743 3 15.2828 4.10711 15.845 5.65299C18.1743 6.23158 20.0109 8.00164 20.628 10.2884C21.124 12.1269 21.124 14.0599 20.628 15.8984C19.9864 18.2762 18.0262 20.0952 15.5648 20.5972L15.1455 20.6827C13.0708 21.1058 10.9292 21.1058 8.85451 20.6827L8.43518 20.5972C5.97375 20.0952 4.0136 18.2762 3.37205 15.8984C2.87598 14.0599 2.87598 12.1269 3.37205 10.2884C3.98906 8.00163 5.82573 6.23158 8.15497 5.65299ZM12 10.1828C10.3564 10.1828 9.02394 11.4859 9.02394 13.0934C9.02394 14.7009 10.3564 16.0041 12 16.0041C13.6436 16.0041 14.976 14.7009 14.976 13.0934C14.976 11.4859 13.6436 10.1828 12 10.1828ZM10.176 13.0934C10.176 12.1082 10.9926 11.3095 12 11.3095C13.0074 11.3095 13.824 12.1082 13.824 13.0934C13.824 14.0787 13.0074 14.8774 12 14.8774C10.9926 14.8774 10.176 14.0787 10.176 13.0934Z" fill="#363853"/>
</svg>